# Blender v2.79 (sub 0) OBJ File: ''
# www.blender.org
mtllib eye.mtl
o Cube_Cube.002
v 0.000000 -0.350000 -0.115000
v 0.000000 -0.205000 -0.165000
v 0.300000 -0.200000 -0.040000
v 0.175000 -0.350000 -0.015000
v 0.000000 -0.000000 -0.200000
v 0.000000 0.200000 -0.165000
v 0.300000 0.200000 -0.040000
v 0.350000 -0.000000 -0.065000
v 0.000000 0.350000 -0.115000
v 0.000000 0.406236 0.000000
v 0.175905 0.350000 -0.015000
v 0.000000 -0.406236 0.000000
v 0.175905 0.350000 0.015000
v 0.175000 -0.350000 0.015000
v 0.350000 -0.000000 0.065000
v 0.300000 -0.200000 0.040000
v 0.300000 0.200000 0.040000
v 0.000000 -0.350000 0.115000
v 0.000000 -0.000000 0.200000
v 0.000000 -0.205000 0.165000
v 0.000000 0.350000 0.115000
v 0.000000 0.200000 0.165000
v -0.175000 -0.350000 0.015000
v -0.350000 -0.000000 0.065000
v -0.300000 -0.200000 0.040000
v -0.175000 0.350000 0.015000
v -0.300000 0.200000 0.040000
v -0.175000 -0.350000 -0.015000
v -0.350000 -0.000000 -0.065000
v -0.300000 -0.200000 -0.040000
v -0.175000 0.350000 -0.015000
v -0.300000 0.200000 -0.040000
vt 0.285156 0.113281
vt 0.296875 0.226562
vt 0.046875 0.226562
vt 0.128906 0.101562
vt 0.304688 0.390625
vt 0.292969 0.546875
vt 0.042969 0.546875
vt 0.015625 0.390625
vt 0.281250 0.675781
vt 0.242188 0.765625
vt 0.128906 0.675781
vt 0.246094 0.015625
vt 0.285156 0.109375
vt 0.128906 0.097656
vt 0.296875 0.230469
vt 0.304688 0.386719
vt 0.015625 0.386719
vt 0.046875 0.230469
vt 0.292969 0.550781
vt 0.281250 0.671875
vt 0.125000 0.671875
vt 0.042969 0.550781
vt 0.894531 0.812500
vt 0.882812 0.957031
vt 0.871094 0.812500
vt 0.882812 0.039062
vt 0.894531 0.179688
vt 0.871094 0.179688
vt 0.914062 0.335938
vt 0.929688 0.496094
vt 0.832031 0.496094
vt 0.851562 0.335938
vt 0.914062 0.660156
vt 0.894531 0.808594
vt 0.871094 0.808594
vt 0.851562 0.660156
vt 0.894531 0.183594
vt 0.914062 0.332031
vt 0.851562 0.332031
vt 0.871094 0.183594
vt 0.929688 0.500000
vt 0.914062 0.656250
vt 0.851562 0.656250
vt 0.832031 0.500000
vt 0.382852 0.015664
vt 0.496133 0.097695
vt 0.339883 0.109414
vt 0.578125 0.230469
vt 0.605469 0.386719
vt 0.320312 0.386719
vt 0.328125 0.230469
vt 0.574219 0.550781
vt 0.503906 0.671875
vt 0.347656 0.671875
vt 0.335938 0.550781
vt 0.496094 0.101562
vt 0.578125 0.226562
vt 0.328125 0.226562
vt 0.339844 0.113281
vt 0.605469 0.390625
vt 0.574219 0.546875
vt 0.335938 0.546875
vt 0.320312 0.390625
vt 0.503906 0.675781
vt 0.386719 0.765625
vt 0.347656 0.675781
vt 0.285156 0.109375
vt 0.128906 0.097656
vt 0.296875 0.230469
vt 0.304688 0.386719
vt 0.015625 0.386719
vt 0.046875 0.230469
vt 0.292969 0.550781
vt 0.281250 0.671875
vt 0.125000 0.671875
vt 0.042969 0.550781
vt 0.285156 0.113281
vt 0.296875 0.226562
vt 0.046875 0.226562
vt 0.128906 0.101562
vt 0.304688 0.390625
vt 0.292969 0.546875
vt 0.042969 0.546875
vt 0.015625 0.390625
vt 0.281250 0.675781
vt 0.128906 0.675781
vt 0.894531 0.179688
vt 0.871094 0.179688
vt 0.914062 0.335938
vt 0.929688 0.496094
vt 0.832031 0.496094
vt 0.851562 0.335938
vt 0.914062 0.660156
vt 0.894531 0.808594
vt 0.871094 0.808594
vt 0.851562 0.660156
vt 0.894531 0.183594
vt 0.914062 0.332031
vt 0.851562 0.332031
vt 0.871094 0.183594
vt 0.929688 0.500000
vt 0.914062 0.656250
vt 0.851562 0.656250
vt 0.832031 0.500000
vt 0.894531 0.812500
vt 0.871094 0.812500
vt 0.578125 0.230469
vt 0.605469 0.386719
vt 0.320312 0.386719
vt 0.328125 0.230469
vt 0.574219 0.550781
vt 0.503906 0.671875
vt 0.347656 0.671875
vt 0.335938 0.550781
vt 0.496094 0.101562
vt 0.578125 0.226562
vt 0.328125 0.226562
vt 0.339844 0.113281
vt 0.605469 0.390625
vt 0.574219 0.546875
vt 0.335938 0.546875
vt 0.320312 0.390625
vt 0.503906 0.675781
vt 0.347656 0.675781
vt 0.382812 0.015625
vt 0.496094 0.097656
vt 0.339844 0.109375
vn 0.3991 -0.3811 -0.8340
vn 0.3651 0.1826 -0.9129
vn 0.2423 0.8716 -0.4262
vn 0.2435 -0.8713 -0.4261
vn 0.3665 -0.1805 -0.9128
vn 0.3965 0.3736 -0.8386
vn 0.3045 0.9525 0.0000
vn 0.3059 -0.9521 0.0000
vn 0.9701 -0.2425 -0.0000
vn 0.7705 0.6374 0.0000
vn 0.7682 -0.6402 0.0000
vn 0.9701 0.2425 0.0000
vn 0.2435 -0.8713 0.4261
vn 0.3665 -0.1805 0.9128
vn 0.3965 0.3736 0.8386
vn 0.3991 -0.3811 0.8340
vn 0.3651 0.1826 0.9129
vn 0.2423 0.8716 0.4262
vn -0.2435 -0.8713 0.4261
vn -0.3665 -0.1805 0.9128
vn -0.3969 0.3748 0.8379
vn -0.3991 -0.3811 0.8340
vn -0.3651 0.1826 0.9129
vn -0.2435 0.8713 0.4261
vn -0.3059 -0.9521 0.0000
vn -0.9701 -0.2425 -0.0000
vn -0.7682 0.6402 0.0000
vn -0.7682 -0.6402 0.0000
vn -0.9701 0.2425 0.0000
vn -0.3059 0.9521 0.0000
vn -0.3665 -0.1805 -0.9128
vn -0.3969 0.3748 -0.8379
vn -0.3991 -0.3811 -0.8340
vn -0.3651 0.1826 -0.9129
vn -0.2435 0.8713 -0.4261
vn -0.2435 -0.8713 -0.4261
usemtl Material.001
s 1
f 1/1/1 2/2/1 3/3/1 4/4/1
f 5/5/2 6/6/2 7/7/2 8/8/2
f 9/9/3 10/10/3 11/11/3
f 12/12/4 1/13/4 4/14/4
f 2/15/5 5/16/5 8/17/5 3/18/5
f 6/19/6 9/20/6 11/21/6 7/22/6
f 11/23/7 10/24/7 13/25/7
f 12/26/8 4/27/8 14/28/8
f 3/29/9 8/30/9 15/31/9 16/32/9
f 7/33/10 11/34/10 13/35/10 17/36/10
f 4/37/11 3/38/11 16/39/11 14/40/11
f 8/41/12 7/42/12 17/43/12 15/44/12
f 12/45/13 14/46/13 18/47/13
f 16/48/14 15/49/14 19/50/14 20/51/14
f 17/52/15 13/53/15 21/54/15 22/55/15
f 14/56/16 16/57/16 20/58/16 18/59/16
f 15/60/17 17/61/17 22/62/17 19/63/17
f 13/64/18 10/65/18 21/66/18
f 12/12/19 18/67/19 23/68/19
f 20/69/20 19/70/20 24/71/20 25/72/20
f 22/73/21 21/74/21 26/75/21 27/76/21
f 18/77/22 20/78/22 25/79/22 23/80/22
f 19/81/23 22/82/23 27/83/23 24/84/23
f 21/85/24 10/10/24 26/86/24
f 12/26/25 23/87/25 28/88/25
f 25/89/26 24/90/26 29/91/26 30/92/26
f 27/93/27 26/94/27 31/95/27 32/96/27
f 23/97/28 25/98/28 30/99/28 28/100/28
f 24/101/29 27/102/29 32/103/29 29/104/29
f 26/105/30 10/24/30 31/106/30
f 30/107/31 29/108/31 5/109/31 2/110/31
f 32/111/32 31/112/32 9/113/32 6/114/32
f 28/115/33 30/116/33 2/117/33 1/118/33
f 29/119/34 32/120/34 6/121/34 5/122/34
f 31/123/35 10/65/35 9/124/35
f 12/125/36 28/126/36 1/127/36
