# Blender v2.79 (sub 0) OBJ File: 'stabilizer_1.blend'
# www.blender.org
mtllib stabilizer_1.mtl
o Cube_Cube.002
v 0.000000 0.000000 1.000000
v 0.156962 0.077521 0.843038
v 0.000000 0.000000 0.000000
v 0.156962 0.077521 0.156962
v 1.000000 0.000000 1.000000
v 0.843038 0.077521 0.843038
v 1.000000 0.000000 0.000000
v 0.843038 0.077521 0.156962
v 0.156962 0.684003 0.843038
v 0.156962 0.684003 0.156962
v 0.843038 0.684003 0.843038
v 0.843038 0.684003 0.156962
v 0.069469 0.750950 0.930531
v 0.069469 0.750950 0.069469
v 0.930531 0.750950 0.930531
v 0.930531 0.750950 0.069469
v 0.284053 0.815047 0.715947
v 0.284053 0.815047 0.284053
v 0.715947 0.815047 0.715947
v 0.715947 0.815047 0.284053
vt 0.333668 0.913758
vt 0.394309 0.846125
vt 0.659368 0.846125
vt 0.720009 0.913758
vt 0.333668 0.982062
vt 0.394309 0.914429
vt 0.659368 0.914429
vt 0.720009 0.982062
vt 0.720009 0.777821
vt 0.659368 0.845455
vt 0.394309 0.845455
vt 0.333668 0.777821
vt 0.720009 0.709517
vt 0.659368 0.777151
vt 0.394309 0.777151
vt 0.333668 0.709517
vt 0.386675 0.386675
vt 0.000335 0.386675
vt 0.000335 0.000335
vt 0.386675 0.000335
vt 0.621655 0.000335
vt 0.621655 0.265394
vt 0.387346 0.265394
vt 0.387346 0.000335
vt 0.700804 0.665558
vt 0.960980 0.665557
vt 0.999665 0.708120
vt 0.667002 0.708120
vt 0.000335 0.387346
vt 0.265394 0.387346
vt 0.265394 0.621655
vt 0.000335 0.621655
vt 0.531123 0.621655
vt 0.266064 0.621655
vt 0.266064 0.387346
vt 0.531122 0.387346
vt 0.531793 0.387346
vt 0.796851 0.387346
vt 0.796851 0.621655
vt 0.531793 0.621655
vt 0.000335 0.709517
vt 0.332998 0.709517
vt 0.250095 0.796039
vt 0.083238 0.796039
vt 0.921186 0.210425
vt 0.656127 0.210425
vt 0.622325 0.167863
vt 0.954988 0.167863
vt 0.700804 0.626563
vt 0.965863 0.626562
vt 0.999665 0.664887
vt 0.667002 0.664887
vt 0.917930 0.253658
vt 0.656127 0.253658
vt 0.622325 0.211096
vt 0.954988 0.211096
vt 0.789183 0.167193
vt 0.622325 0.167193
vt 0.622325 0.000335
vt 0.789183 0.000335
vt 0.721239 0.350371
vt 0.388576 0.350371
vt 0.470248 0.266064
vt 0.637106 0.266064
vt 0.000335 0.622325
vt 0.332998 0.622325
vt 0.250095 0.708847
vt 0.083238 0.708847
vt 0.666331 0.708847
vt 0.333668 0.708847
vt 0.416571 0.622325
vt 0.583429 0.622325
vn -0.4428 0.8966 0.0000
vn 0.0000 0.8966 -0.4428
vn 0.4428 0.8966 0.0000
vn 0.0000 0.8966 0.4428
vn 0.0000 -1.0000 0.0000
vn -1.0000 0.0000 0.0000
vn 0.0000 -0.7942 0.6077
vn 0.0000 0.0000 1.0000
vn 0.0000 0.0000 -1.0000
vn 1.0000 0.0000 0.0000
vn 0.2862 0.9582 0.0000
vn 0.0000 -0.7942 -0.6077
vn 0.6077 -0.7942 0.0000
vn -0.6077 -0.7942 0.0000
vn 0.0000 1.0000 0.0000
vn -0.2862 0.9582 0.0000
vn 0.0000 0.9582 0.2862
vn 0.0000 0.9582 -0.2862
usemtl Material.002
s off
f 1/1/1 2/2/1 4/3/1 3/4/1
f 3/5/2 4/6/2 8/7/2 7/8/2
f 7/9/3 8/10/3 6/11/3 5/12/3
f 5/13/4 6/14/4 2/15/4 1/16/4
f 3/17/5 7/18/5 5/19/5 1/20/5
f 4/21/6 2/22/6 9/23/6 10/24/6
f 9/25/7 11/26/7 15/27/7 13/28/7
f 2/29/8 6/30/8 11/31/8 9/32/8
f 8/33/9 4/34/9 10/35/9 12/36/9
f 6/37/10 8/38/10 12/39/10 11/40/10
f 15/41/11 16/42/11 20/43/11 19/44/11
f 12/45/12 10/46/12 14/47/12 16/48/12
f 11/49/13 12/50/13 16/51/13 15/52/13
f 10/53/14 9/54/14 13/55/14 14/56/14
f 20/57/15 18/58/15 17/59/15 19/60/15
f 14/61/16 13/62/16 17/63/16 18/64/16
f 13/65/17 15/66/17 19/67/17 17/68/17
f 16/69/18 14/70/18 18/71/18 20/72/18
