# Blender v2.79 (sub 0) OBJ File: ''
# www.blender.org
mtllib stabilizer_2.mtl
o Cube_Cube.001
v 0.150000 0.075000 0.850000
v 0.300000 1.000000 0.700000
v 0.300000 1.000000 0.310000
v 0.150000 0.075000 0.150000
v 0.700000 1.000000 0.310000
v 0.850000 0.075000 0.150000
v 0.700000 1.000000 0.700000
v 0.850000 0.075000 0.850000
v 0.000000 0.000000 0.000000
v 0.000000 -0.000000 1.000000
v 0.750000 1.770000 0.725000
v 0.250000 1.770000 0.725000
v 0.750000 1.770000 0.275000
v 0.580000 2.000000 0.420000
v 0.580000 2.000000 0.580000
v 0.250000 1.770000 0.275000
v 0.420000 2.000000 0.420000
v 0.420000 2.000000 0.580000
v 1.000000 0.000000 0.000000
v 1.000000 -0.000000 1.000000
vt 0.352537 0.000348
vt 0.681915 0.053072
vt 0.681915 0.190154
vt 0.352537 0.246393
vt 0.000348 0.352538
vt 0.330307 0.405261
vt 0.330307 0.545858
vt 0.000348 0.598582
vt 0.331005 0.352538
vt 0.660382 0.408778
vt 0.660381 0.545860
vt 0.331004 0.598582
vt 0.661079 0.681915
vt 0.713803 0.352538
vt 0.854399 0.352538
vt 0.907123 0.681915
vt 0.841480 0.299117
vt 0.841480 0.053072
vt 0.900427 0.000348
vt 0.900427 0.351841
vt 0.271974 0.757451
vt 0.271974 0.616854
vt 0.542765 0.599279
vt 0.542765 0.775025
vt 0.661079 0.999652
vt 0.661079 0.841480
vt 0.761608 0.892446
vt 0.761608 0.948685
vt 0.000349 0.757451
vt 0.000348 0.616854
vt 0.271277 0.599279
vt 0.271277 0.775025
vt 0.661079 0.831996
vt 0.661079 0.694914
vt 0.932298 0.682612
vt 0.932298 0.840783
vt 0.828481 0.271567
vt 0.691399 0.271567
vt 0.682612 0.000348
vt 0.840783 0.000348
vt 0.659345 0.655518
vt 0.603106 0.655518
vt 0.603106 0.599279
vt 0.659345 0.599279
vt 0.277321 0.835366
vt 0.277321 0.993537
vt 0.176791 0.942571
vt 0.176791 0.886332
vt 0.000348 0.835366
vt 0.176095 0.835366
vt 0.116341 0.930934
vt 0.060102 0.930934
vt 0.528284 0.871290
vt 0.352537 0.871290
vt 0.412291 0.775722
vt 0.468530 0.775722
vt 0.000348 0.000348
vt 0.351841 0.000348
vt 0.351841 0.351841
vt 0.000348 0.351841
vt 0.602409 0.652003
vt 0.602409 0.898047
vt 0.543462 0.950771
vt 0.543462 0.599279
vt 0.299117 0.834669
vt 0.053072 0.834669
vt 0.000348 0.775722
vt 0.351841 0.775722
vt 0.405261 0.292894
vt 0.651306 0.292894
vt 0.704030 0.351841
vt 0.352537 0.351841
vn -0.9871 0.1601 0.0000
vn 0.0000 0.1704 -0.9854
vn 0.9871 0.1601 0.0000
vn 0.0000 0.1601 0.9871
vn -0.4472 0.8944 0.0000
vn 0.0000 -0.0325 0.9995
vn 0.8042 0.5944 0.0000
vn 0.0000 -0.0454 -0.9990
vn 0.9979 -0.0648 -0.0000
vn -0.9979 -0.0648 -0.0000
vn 0.0000 1.0000 0.0000
vn -0.8042 0.5944 0.0000
vn 0.0000 0.5333 0.8459
vn 0.0000 0.5333 -0.8459
vn 0.0000 -1.0000 -0.0000
vn 0.4472 0.8944 0.0000
vn 0.0000 0.8944 0.4472
vn 0.0000 0.8944 -0.4472
usemtl Material.001
s 1
f 1/1/1 2/2/1 3/3/1 4/4/1
f 4/5/2 3/6/2 5/7/2 6/8/2
f 6/9/3 5/10/3 7/11/3 8/12/3
f 8/13/4 7/14/4 2/15/4 1/16/4
f 1/17/5 4/18/5 9/19/5 10/20/5
f 2/21/6 7/22/6 11/23/6 12/24/6
f 11/25/7 13/26/7 14/27/7 15/28/7
f 5/29/8 3/30/8 16/31/8 13/32/8
f 7/33/9 5/34/9 13/35/9 11/36/9
f 3/37/10 2/38/10 12/39/10 16/40/10
f 14/41/11 17/42/11 18/43/11 15/44/11
f 16/45/12 12/46/12 18/47/12 17/48/12
f 12/49/13 11/50/13 15/51/13 18/52/13
f 13/53/14 16/54/14 17/55/14 14/56/14
f 9/57/15 19/58/15 20/59/15 10/60/15
f 6/61/16 8/62/16 20/63/16 19/64/16
f 8/65/17 1/66/17 10/67/17 20/68/17
f 4/69/18 6/70/18 19/71/18 9/72/18
