# Blender v2.79 (sub 0) OBJ File: 'focus.blend'
# www.blender.org
mtllib terra_focus_hell.mtl
o Cylinder_Cylinder.001
v 0.500000 0.666667 0.000000
v 0.500000 0.333333 0.000000
v 0.500000 0.104873 0.104873
v 0.500000 0.895127 0.104873
v 0.779397 0.104873 0.220603
v 0.779397 0.895127 0.220603
v 0.895127 0.104873 0.500000
v 0.895127 0.895127 0.500000
v 0.779397 0.104873 0.779397
v 0.779397 0.895127 0.779397
v 0.500000 0.104873 0.895127
v 0.500000 0.895127 0.895127
v 0.220603 0.104873 0.779397
v 0.220603 0.895127 0.779397
v 0.104873 0.104873 0.500000
v 0.104873 0.895127 0.500000
v 0.220603 0.104873 0.220603
v 0.220603 0.895127 0.220603
v 0.853553 0.666667 0.146447
v 0.853553 0.333333 0.146447
v 1.000000 0.666667 0.500000
v 1.000000 0.333333 0.500000
v 0.853553 0.666667 0.853553
v 0.853553 0.333333 0.853553
v 0.500000 0.666667 1.000000
v 0.500000 0.333333 1.000000
v 0.146447 0.666667 0.853553
v 0.146447 0.333333 0.853553
v 0.000000 0.666667 0.500000
v 0.000000 0.333333 0.500000
v 0.146447 0.666667 0.146447
v 0.146447 0.333333 0.146447
v 0.500000 0.197423 0.197423
v 0.500000 0.802577 0.197423
v 0.713954 0.197423 0.286046
v 0.713954 0.802577 0.286046
v 0.802577 0.197423 0.500000
v 0.802577 0.802577 0.500000
v 0.713954 0.197423 0.713954
v 0.713954 0.802577 0.713954
v 0.500000 0.197423 0.802577
v 0.500000 0.802577 0.802577
v 0.286046 0.197423 0.713954
v 0.286046 0.802577 0.713954
v 0.197423 0.197423 0.500000
v 0.197423 0.802577 0.500000
v 0.286046 0.197423 0.286046
v 0.286046 0.802577 0.286046
v 0.500000 0.197423 0.197423
v 0.500000 0.802577 0.197423
v 0.713954 0.197423 0.286046
v 0.713954 0.802577 0.286046
v 0.802577 0.197423 0.500000
v 0.802577 0.802577 0.500000
v 0.713954 0.197423 0.713954
v 0.713954 0.802577 0.713954
v 0.500000 0.197423 0.802577
v 0.286046 0.197423 0.713954
v 0.286046 0.802577 0.713954
v 0.197423 0.802577 0.500000
v 0.286046 0.197423 0.286046
v 0.286046 0.802577 0.286046
v 0.500000 0.197423 0.197423
v 0.500000 0.802577 0.197423
v 0.713954 0.197423 0.286046
v 0.713954 0.802577 0.286046
v 0.802577 0.197423 0.500000
v 0.802577 0.802577 0.500000
v 0.713954 0.197423 0.713954
v 0.713954 0.802577 0.713954
v 0.500000 0.197423 0.802577
v 0.286046 0.197423 0.713954
v 0.286046 0.802577 0.713954
v 0.197423 0.802577 0.500000
v 0.286046 0.197423 0.286046
v 0.286046 0.802577 0.286046
v 0.500000 0.150000 0.290595
v 0.500000 0.850000 0.290595
v 0.648072 0.150000 0.351928
v 0.648072 0.850000 0.351928
v 0.709405 0.150000 0.500000
v 0.709405 0.850000 0.500000
v 0.648072 0.150000 0.648072
v 0.648072 0.850000 0.648072
v 0.500000 0.150000 0.709405
v 0.500000 0.850000 0.709405
v 0.351928 0.150000 0.648072
v 0.351928 0.850000 0.648072
v 0.290595 0.150000 0.500000
v 0.290595 0.850000 0.500000
v 0.351928 0.150000 0.351928
v 0.351928 0.850000 0.351928
v 0.500000 0.050000 0.500000
v 0.500000 0.950000 0.500000
vt 0.278823 0.563420
vt 0.191361 0.671037
vt 0.191361 0.563420
vt 0.144614 0.564967
vt 0.202614 0.669711
vt 0.144438 0.668816
vt 0.338767 0.659751
vt 0.278823 0.671037
vt 0.200705 0.663800
vt 0.282824 0.574916
vt 0.283283 0.663372
vt 0.216421 0.672143
vt 0.149916 0.563503
vt 0.216030 0.563104
vt 0.269264 0.563104
vt 0.269264 0.672143
vt 0.339832 0.653802
vt 0.339470 0.583900
vt 0.343527 0.562857
vt 0.284624 0.671485
vt 0.284918 0.562447
vt 0.269551 0.671978
vt 0.342248 0.563252
vt 0.342371 0.672182
vt 0.272807 0.563359
vt 0.205739 0.670282
vt 0.205861 0.563614
vt 0.337913 0.564127
vt 0.286192 0.669488
vt 0.286023 0.564093
vt 0.201065 0.671747
vt 0.201050 0.562710
vt 0.272562 0.671007
vt 0.327318 0.586352
vt 0.327261 0.674986
vt 0.144059 0.654816
vt 0.200246 0.575344
vt 0.143570 0.562470
vt 0.144007 0.671337
vt 0.218525 0.671118
vt 0.262352 0.565526
vt 0.262352 0.671118
vt 0.150515 0.674370
vt 0.204767 0.562946
vt 0.204852 0.669587
vt 0.196955 0.670346
vt 0.282253 0.566096
vt 0.282730 0.670346
vt 0.263902 0.673598
vt 0.315811 0.577693
vt 0.315811 0.662362
vt 0.167509 0.662315
vt 0.219418 0.566410
vt 0.219418 0.673551
vt 0.131416 0.659751
vt 0.131416 0.574706
vt 0.202445 0.564626
vt 0.268233 0.671013
vt 0.330347 0.565476
vt 0.330589 0.670583
vt 0.209973 0.671468
vt 0.145175 0.566441
vt 0.210187 0.566019
vt 0.483677 0.563078
vt 0.341256 0.670844
vt 0.341154 0.563852
vt 0.337742 0.563893
vt 0.148076 0.671222
vt 0.149874 0.562341
vt 0.483403 0.563835
vt 0.348223 0.670655
vt 0.348324 0.563997
vt 0.000845 0.562874
vt 0.146283 0.670847
vt 0.000914 0.670897
vt 0.341151 0.563914
vt 0.146954 0.671537
vt 0.146197 0.562900
vt 0.137378 0.563608
vt 0.000139 0.670896
vt 0.000737 0.564161
vt 0.340619 0.564010
vt 0.146691 0.670992
vt 0.146102 0.562622
vt 0.335535 0.563369
vt 0.147407 0.671933
vt 0.147404 0.563248
vt 0.339043 0.563506
vt 0.483716 0.671171
vt 0.339411 0.671041
vt 0.341164 0.564012
vt 0.482769 0.670504
vt 0.341135 0.670791
vt 0.146311 0.671477
vt 0.146401 0.563059
vt 0.000278 0.563149
vt 0.146886 0.671651
vt 0.000230 0.671564
vt 0.000400 0.671212
vt 0.000549 0.562595
vt 0.149437 0.670863
vt 0.146390 0.563829
vt 0.000704 0.671047
vt 0.000449 0.563118
vt 0.000000 0.000000
vt 0.000000 0.000000
vt 0.000000 0.000000
vt 0.000000 0.000000
vt 0.000000 0.000000
vt 0.000000 0.000000
vt 0.000000 0.000000
vt 0.000000 0.000000
vt 0.000000 0.000000
vt 0.000000 0.000000
vt 0.000000 0.000000
vt 0.000000 0.000000
vt 0.000000 0.000000
vt 0.000000 0.000000
vt 0.000000 0.000000
vt 0.000000 0.000000
vt 0.000000 0.000000
vt 0.000000 0.000000
vt 0.000000 0.000000
vt 0.000000 0.000000
vt 0.000000 0.000000
vt 0.000000 0.000000
vt 0.000000 0.000000
vt 0.000000 0.000000
vt 0.000000 0.000000
vt 0.000000 0.000000
vt 0.000000 0.000000
vt 0.000000 0.000000
vt 0.000000 0.000000
vt 0.000000 0.000000
vt 0.000000 0.000000
vt 0.000000 0.000000
vt 0.000000 0.000000
vt 0.000000 0.000000
vt 0.000000 0.000000
vt 0.000000 0.000000
vt 0.000000 0.000000
vt 0.000000 0.000000
vt 0.000000 0.000000
vt 0.000000 0.000000
vt 0.000000 0.000000
vt 0.000000 0.000000
vt 0.000000 0.000000
vt 0.000000 0.000000
vt 0.280444 0.093069
vt 0.287013 0.060608
vt 0.301936 0.066412
vt 0.250093 0.091956
vt 0.236134 0.059167
vt 0.251158 0.077801
vt 0.250050 0.093069
vt 0.272139 0.079056
vt 0.302503 0.026951
vt 0.272405 0.014179
vt 0.280794 0.000025
vt 0.280444 0.002056
vt 0.251104 0.016069
vt 0.250050 0.002056
vt 0.251158 0.014179
vt 0.250093 0.000025
vt 0.280794 0.091956
vt 0.272405 0.077801
vt 0.228558 0.066412
vt 0.251104 0.079056
vt 0.301936 0.028713
vt 0.272139 0.016069
vt 0.236134 0.032813
vt 0.228384 0.026951
vt 0.287429 0.059167
vt 0.302503 0.065030
vt 0.236230 0.034517
vt 0.236230 0.060608
vt 0.287013 0.034517
vt 0.228384 0.065030
vt 0.287429 0.032813
vt 0.228558 0.028713
vt 0.260989 0.047562
vt 0.263241 0.044941
vt 0.338767 0.574706
vt 0.216420 0.672027
vt 0.151854 0.671647
vt 0.150718 0.564707
vt 0.343654 0.671104
vt 0.342410 0.563113
vt 0.272796 0.670337
vt 0.338047 0.669216
vt 0.272634 0.563996
vt 0.143697 0.584914
vt 0.218525 0.565526
vt 0.149679 0.585740
vt 0.196955 0.566096
vt 0.263902 0.566456
vt 0.167509 0.577646
vt 0.268192 0.565418
vt 0.144953 0.671870
vt 0.483706 0.671269
vt 0.338381 0.671198
vt 0.483068 0.671793
vt 0.340622 0.670507
vt 0.340714 0.670452
vt 0.335272 0.671103
vt 0.483800 0.563533
vt 0.484059 0.563413
vt 0.147134 0.563253
vn 0.3827 0.0000 -0.9239
vn 0.3523 -0.3904 0.8506
vn 0.3523 0.3904 -0.8506
vn -0.3827 0.0000 0.9239
vn 0.8506 0.3904 -0.3523
vn 0.9239 0.0000 -0.3827
vn -0.3523 -0.3904 0.8506
vn 0.8506 0.3904 0.3523
vn 0.8505 -0.3904 -0.3523
vn -0.9239 0.0000 0.3827
vn 0.3523 0.3904 0.8506
vn 0.9239 0.0000 0.3827
vn -0.8506 -0.3904 0.3523
vn -0.3523 0.3904 0.8506
vn 0.8505 -0.3904 0.3523
vn -0.9239 0.0000 -0.3827
vn -0.8506 0.3904 0.3523
vn -0.3827 0.0000 -0.9239
vn -0.8506 -0.3904 -0.3523
vn -0.8506 0.3904 -0.3523
vn 0.3523 -0.3904 -0.8506
vn 0.3827 0.0000 0.9239
vn -0.3523 0.3904 -0.8506
vn -0.3523 -0.3904 -0.8506
vn 0.2811 -0.6786 0.6786
vn -0.6786 0.6786 -0.2811
vn 0.6786 0.6786 -0.2811
vn -0.6786 -0.6786 0.2811
vn 0.2811 -0.6786 -0.6786
vn 0.2811 0.6786 0.6786
vn -0.2811 -0.6786 0.6786
vn -0.6786 0.6786 0.2811
vn 0.2811 0.6786 -0.6786
vn -0.2811 -0.6786 -0.6786
vn 0.6786 -0.6786 0.2811
vn -0.2811 0.6786 0.6786
vn -0.2811 0.6786 -0.6786
vn 0.6786 0.6786 0.2811
vn -0.6786 -0.6786 -0.2811
vn 0.6786 -0.6786 -0.2811
vn 0.0000 0.0000 1.0000
vn -0.1847 -0.8759 -0.4458
vn 0.1847 0.8759 0.4458
vn 0.1847 -0.8759 -0.4458
vn -0.1847 0.8759 -0.4458
vn -0.1847 -0.8759 0.4458
vn 0.1847 0.8759 -0.4458
vn -0.1847 0.8759 0.4458
vn 0.4458 -0.8759 -0.1847
vn -0.4458 -0.8759 0.1847
vn 0.4458 0.8759 -0.1847
vn -0.4458 0.8759 0.1847
vn 0.4458 -0.8759 0.1847
vn -0.4458 -0.8759 -0.1847
vn 0.4458 0.8759 0.1847
vn -0.4458 0.8759 -0.1847
vn 0.1847 -0.8759 0.4458
vn 0.4242 -0.8883 0.1757
vn -0.4242 -0.8883 -0.1757
vn 0.4242 0.8883 0.1757
vn -0.4242 0.8883 -0.1757
vn 0.1757 -0.8883 0.4242
vn -0.1757 -0.8883 -0.4242
vn 0.1757 0.8883 0.4242
vn 0.1757 -0.8883 -0.4242
vn -0.1757 0.8883 -0.4242
vn -0.1757 -0.8883 0.4242
vn 0.1757 0.8883 -0.4242
vn -0.1757 0.8883 0.4242
vn 0.4242 -0.8883 -0.1757
vn -0.4242 -0.8883 0.1757
vn 0.4242 0.8883 -0.1757
vn -0.4242 0.8883 0.1757
vn 0.8505 0.3904 -0.3523
vn -0.3523 -0.3904 0.8505
vn 0.8505 0.3904 0.3523
vn 0.8506 -0.3904 -0.3523
vn 0.8506 -0.3904 0.3523
vn 0.3523 -0.3904 -0.8505
vn -0.3523 0.3904 -0.8505
usemtl Material.001
s off
f 1/1/1 20/2/1 2/3/1
f 9/4/2 26/5/2 11/6/2
f 1/1/3 6/7/3 19/8/3
f 25/9/4 28/10/4 26/11/4
f 19/12/5 8/13/5 21/14/5
f 19/12/6 22/15/6 20/16/6
f 11/17/7 28/10/7 13/18/7
f 8/19/8 23/20/8 21/21/8
f 20/22/9 7/23/9 5/24/9
f 27/25/10 30/26/10 28/27/10
f 10/28/11 25/29/11 23/30/11
f 21/21/12 24/31/12 22/32/12
f 28/33/13 15/34/13 13/35/13
f 12/36/14 27/37/14 25/9/14
f 7/38/15 24/31/15 9/39/15
f 29/40/16 32/41/16 30/42/16
f 14/43/17 29/44/17 27/45/17
f 31/46/18 2/47/18 32/48/18
f 30/49/19 17/50/19 15/51/19
f 16/52/20 31/53/20 29/54/20
f 2/3/21 5/55/21 3/56/21
f 23/30/22 26/5/22 24/57/22
f 18/58/23 1/59/23 31/60/23
f 17/61/24 2/62/24 3/63/24
f 3/64/25 47/65/25 17/66/25
f 8/67/26 40/68/26 10/69/26
f 14/70/27 46/71/27 16/72/27
f 5/73/28 37/74/28 35/75/28
f 13/76/29 41/77/29 11/78/29
f 18/79/30 34/80/30 4/81/30
f 5/82/31 33/83/31 3/84/31
f 6/85/32 38/86/32 8/87/32
f 14/88/33 42/89/33 44/90/33
f 9/91/34 41/92/34 39/93/34
f 17/66/35 45/94/35 15/95/35
f 6/96/36 34/97/36 36/98/36
f 10/69/37 42/99/37 12/100/37
f 16/72/38 48/101/38 18/79/38
f 9/91/39 37/74/39 7/102/39
f 15/95/40 43/103/40 13/104/40
f 39/105/41 53/106/41 37/107/41
f 38/108/41 56/109/41 40/110/41
f 46/111/41 62/112/41 48/113/41
f 41/114/41 55/115/41 39/105/41
f 33/116/41 61/117/41 47/118/41
f 42/119/41 40/110/41 56/109/41
f 35/120/41 49/121/41 33/116/41
f 48/113/41 50/122/41 34/123/41
f 43/124/41 57/125/41 41/114/41
f 34/123/41 52/126/41 36/127/41
f 44/128/41 42/119/41 59/129/41
f 37/107/41 51/130/41 35/120/41
f 45/131/41 58/132/41 43/124/41
f 36/127/41 54/133/41 38/108/41
f 44/128/41 60/134/41 46/111/41
f 59/129/41 42/119/41 73/135/41
f 53/106/41 65/136/41 51/130/41
f 45/131/41 72/137/41 58/132/41
f 52/126/41 68/138/41 54/133/41
f 59/129/41 74/139/41 60/134/41
f 55/115/41 67/140/41 53/106/41
f 54/133/41 70/141/41 56/109/41
f 60/134/41 76/142/41 62/112/41
f 57/125/41 69/143/41 55/115/41
f 49/121/41 75/144/41 61/117/41
f 42/119/41 56/109/41 70/141/41
f 51/130/41 63/145/41 49/121/41
f 62/112/41 64/146/41 50/122/41
f 58/132/41 71/147/41 57/125/41
f 50/122/41 66/148/41 52/126/41
f 63/149/42 91/150/42 75/151/42
f 42/152/43 84/153/43 86/154/43
f 65/155/44 77/156/44 63/149/44
f 76/157/45 78/158/45 64/159/45
f 72/160/46 85/161/46 71/162/46
f 64/159/47 80/163/47 66/164/47
f 73/165/48 86/154/48 88/166/48
f 67/167/49 79/168/49 65/155/49
f 45/169/50 87/170/50 72/160/50
f 66/164/51 82/171/51 68/172/51
f 73/165/52 90/173/52 74/174/52
f 67/167/53 83/175/53 81/176/53
f 45/169/54 91/150/54 89/177/54
f 68/172/55 84/153/55 70/178/55
f 74/174/56 92/179/56 76/157/56
f 71/162/57 83/175/57 69/180/57
f 81/176/58 83/175/58 93/181/58
f 89/177/59 91/150/59 93/181/59
f 84/153/60 82/171/60 94/182/60
f 92/179/61 90/173/61 94/182/61
f 83/175/62 85/161/62 93/181/62
f 91/150/63 77/156/63 93/181/63
f 86/154/64 84/153/64 94/182/64
f 77/156/65 79/168/65 93/181/65
f 78/158/66 92/179/66 94/182/66
f 85/161/67 87/170/67 93/181/67
f 80/163/68 78/158/68 94/182/68
f 88/166/69 86/154/69 94/182/69
f 79/168/70 81/176/70 93/181/70
f 87/170/71 89/177/71 93/181/71
f 82/171/72 80/163/72 94/182/72
f 90/173/73 88/166/73 94/182/73
f 1/1/1 19/8/1 20/2/1
f 9/4/2 24/57/2 26/5/2
f 1/1/3 4/183/3 6/7/3
f 25/9/4 27/37/4 28/10/4
f 19/184/74 6/185/74 8/186/74
f 19/12/6 21/14/6 22/15/6
f 11/17/75 26/11/75 28/10/75
f 8/19/76 10/187/76 23/20/76
f 20/16/77 22/15/77 7/188/77
f 27/25/10 29/189/10 30/26/10
f 10/28/11 12/190/11 25/29/11
f 21/21/12 23/20/12 24/31/12
f 28/33/13 30/191/13 15/34/13
f 12/36/14 14/192/14 27/37/14
f 7/38/78 22/32/78 24/31/78
f 29/40/16 31/193/16 32/41/16
f 14/43/17 16/194/17 29/44/17
f 31/46/18 1/195/18 2/47/18
f 30/49/19 32/196/19 17/50/19
f 16/52/20 18/197/20 31/53/20
f 2/3/79 20/2/79 5/55/79
f 23/30/22 25/29/22 26/5/22
f 18/58/80 4/198/80 1/59/80
f 17/61/24 32/199/24 2/62/24
f 3/64/25 33/200/25 47/65/25
f 8/67/26 38/201/26 40/68/26
f 14/70/27 44/202/27 46/71/27
f 5/73/28 7/102/28 37/74/28
f 13/76/29 43/203/29 41/77/29
f 18/79/30 48/101/30 34/80/30
f 5/82/31 35/204/31 33/83/31
f 6/85/32 36/205/32 38/86/32
f 14/88/33 12/206/33 42/89/33
f 9/91/34 11/207/34 41/92/34
f 17/66/35 47/65/35 45/94/35
f 6/96/36 4/208/36 34/97/36
f 10/69/37 40/68/37 42/99/37
f 16/72/38 46/71/38 48/101/38
f 9/91/39 39/93/39 37/74/39
f 15/95/40 45/94/40 43/103/40
f 39/105/41 55/115/41 53/106/41
f 47/118/41 61/117/41 45/131/41
f 38/108/41 54/133/41 56/109/41
f 46/111/41 60/134/41 62/112/41
f 41/114/41 57/125/41 55/115/41
f 33/116/41 49/121/41 61/117/41
f 35/120/41 51/130/41 49/121/41
f 48/113/41 62/112/41 50/122/41
f 43/124/41 58/132/41 57/125/41
f 34/123/41 50/122/41 52/126/41
f 37/107/41 53/106/41 51/130/41
f 36/127/41 52/126/41 54/133/41
f 44/128/41 59/129/41 60/134/41
f 53/106/41 67/140/41 65/136/41
f 52/126/41 66/148/41 68/138/41
f 59/129/41 73/135/41 74/139/41
f 55/115/41 69/143/41 67/140/41
f 61/117/41 75/144/41 45/131/41
f 54/133/41 68/138/41 70/141/41
f 60/134/41 74/139/41 76/142/41
f 57/125/41 71/147/41 69/143/41
f 49/121/41 63/145/41 75/144/41
f 51/130/41 65/136/41 63/145/41
f 62/112/41 76/142/41 64/146/41
f 58/132/41 72/137/41 71/147/41
f 50/122/41 64/146/41 66/148/41
f 63/149/42 77/156/42 91/150/42
f 42/152/43 70/178/43 84/153/43
f 65/155/44 79/168/44 77/156/44
f 76/157/45 92/179/45 78/158/45
f 72/160/46 87/170/46 85/161/46
f 64/159/47 78/158/47 80/163/47
f 73/165/48 42/152/48 86/154/48
f 67/167/49 81/176/49 79/168/49
f 45/169/50 89/177/50 87/170/50
f 66/164/51 80/163/51 82/171/51
f 73/165/52 88/166/52 90/173/52
f 67/167/53 69/180/53 83/175/53
f 45/169/54 75/151/54 91/150/54
f 68/172/55 82/171/55 84/153/55
f 74/174/56 90/173/56 92/179/56
f 71/162/57 85/161/57 83/175/57
