# Blender v2.79 (sub 0) OBJ File: ''
# www.blender.org
mtllib toroid.mtl
o Torus
v 0.293750 0.000000 0.000000
v 0.207713 0.000000 -0.207713
v 0.186941 0.050879 -0.186941
v 0.264375 0.050879 0.000000
v 0.145399 0.050879 -0.145399
v 0.205625 0.050879 0.000000
v 0.124628 0.000000 -0.124628
v 0.176250 0.000000 0.000000
v 0.145399 -0.050879 -0.145399
v 0.205625 -0.050879 -0.000000
v 0.186941 -0.050879 -0.186941
v 0.264375 -0.050879 -0.000000
v 0.000000 0.000000 -0.293750
v 0.000000 0.050879 -0.264375
v 0.000000 0.050879 -0.205625
v 0.000000 0.000000 -0.176250
v 0.000000 -0.050879 -0.205625
v 0.000000 -0.050879 -0.264375
v -0.207713 0.000000 -0.207713
v -0.186941 0.050879 -0.186941
v -0.145399 0.050879 -0.145399
v -0.124628 0.000000 -0.124628
v -0.145399 -0.050879 -0.145399
v -0.186941 -0.050879 -0.186941
v -0.293750 0.000000 0.000000
v -0.264375 0.050879 0.000000
v -0.205625 0.050879 0.000000
v -0.176250 0.000000 0.000000
v -0.205625 -0.050879 -0.000000
v -0.264375 -0.050879 -0.000000
v -0.207713 -0.000000 0.207713
v -0.186941 0.050879 0.186941
v -0.145399 0.050879 0.145399
v -0.124628 -0.000000 0.124628
v -0.145399 -0.050879 0.145399
v -0.186941 -0.050879 0.186941
v 0.000000 -0.000000 0.293750
v 0.000000 0.050879 0.264375
v 0.000000 0.050879 0.205625
v 0.000000 -0.000000 0.176250
v 0.000000 -0.050879 0.205625
v 0.000000 -0.050879 0.264375
v 0.207713 -0.000000 0.207713
v 0.186941 0.050879 0.186941
v 0.145399 0.050879 0.145399
v 0.124628 -0.000000 0.124628
v 0.145399 -0.050879 0.145399
v 0.186941 -0.050879 0.186941
vt 0.000619 0.072945
vt 0.277768 0.072949
vt 0.263909 0.144033
vt 0.014476 0.144030
vt 0.251291 0.715503
vt 0.500725 0.715503
vt 0.473010 0.782413
vt 0.279006 0.782413
vt 0.195862 0.855974
vt 0.389865 0.855974
vt 0.376008 0.927058
vt 0.209719 0.927058
vt 0.014477 0.855974
vt 0.180766 0.855974
vt 0.194623 0.927058
vt 0.000619 0.927058
vt 0.028334 0.647355
vt 0.222338 0.647355
vt 0.250053 0.714265
vt 0.000619 0.714265
vt 0.292863 0.000619
vt 0.542297 0.000619
vt 0.556154 0.071703
vt 0.279006 0.071703
vt 0.556154 0.144030
vt 0.279006 0.144030
vt 0.292863 0.072945
vt 0.542297 0.072945
vt 0.751396 0.782413
vt 0.501963 0.782413
vt 0.529678 0.715503
vt 0.723682 0.715503
vt 0.389865 0.854735
vt 0.195862 0.854736
vt 0.209719 0.783651
vt 0.376008 0.783651
vt 0.961734 0.854735
vt 0.795445 0.854735
vt 0.781588 0.783651
vt 0.975592 0.783651
vt 0.779112 0.356826
vt 0.585108 0.356826
vt 0.557393 0.289917
vt 0.806826 0.289917
vt 0.263909 0.071707
vt 0.014476 0.071704
vt 0.000619 0.000619
vt 0.277768 0.000623
vt 0.556154 0.361001
vt 0.279006 0.361001
vt 0.292863 0.289917
vt 0.542297 0.289917
vt 0.500725 0.646117
vt 0.251291 0.646117
vt 0.279006 0.579207
vt 0.473010 0.579207
vt 0.751397 0.501472
vt 0.557393 0.501472
vt 0.571250 0.430387
vt 0.737539 0.430387
vt 0.766492 0.854735
vt 0.600203 0.854735
vt 0.586346 0.783651
vt 0.780350 0.783651
vt 0.723682 0.714265
vt 0.529678 0.714265
vt 0.501963 0.647355
vt 0.751397 0.647355
vt 0.542297 0.505646
vt 0.292863 0.505646
vt 0.279006 0.434562
vt 0.556155 0.434562
vt 0.556154 0.216356
vt 0.279006 0.216356
vt 0.292863 0.145271
vt 0.542297 0.145272
vt 0.806826 0.429149
vt 0.557393 0.429149
vt 0.585108 0.362239
vt 0.779111 0.362239
vt 0.585107 0.854735
vt 0.391104 0.854736
vt 0.404961 0.783651
vt 0.571250 0.783651
vt 0.961735 0.927058
vt 0.795446 0.927058
vt 0.781588 0.855974
vt 0.975592 0.855974
vt 0.779111 0.212181
vt 0.585108 0.212181
vt 0.557393 0.145271
vt 0.806826 0.145271
vt 0.542297 0.433324
vt 0.292863 0.433324
vt 0.279006 0.362239
vt 0.556154 0.362239
vt 0.277768 0.361001
vt 0.000619 0.361001
vt 0.014477 0.289917
vt 0.263910 0.289917
vt 0.806826 0.067529
vt 0.557393 0.067529
vt 0.585108 0.000619
vt 0.779112 0.000619
vt 0.946639 0.501472
vt 0.752635 0.501472
vt 0.766493 0.430387
vt 0.932782 0.430387
vt 0.932782 0.722614
vt 0.766493 0.722614
vt 0.752635 0.651530
vt 0.946639 0.651530
vt 0.222338 0.782413
vt 0.028334 0.782413
vt 0.000619 0.715503
vt 0.250053 0.715503
vt 0.263910 0.288678
vt 0.014477 0.288678
vt 0.000619 0.217594
vt 0.277767 0.217594
vt 0.000619 0.434562
vt 0.277768 0.434562
vt 0.263910 0.505646
vt 0.014477 0.505646
vt 0.501963 0.579207
vt 0.751397 0.579207
vt 0.723682 0.646117
vt 0.529678 0.646117
vt 0.391104 0.855974
vt 0.585108 0.855974
vt 0.571250 0.927058
vt 0.404961 0.927058
vt 0.766493 0.579207
vt 0.932782 0.579207
vt 0.946639 0.650292
vt 0.752635 0.650292
vt 0.028334 0.579207
vt 0.222338 0.579207
vt 0.250053 0.646117
vt 0.000619 0.646117
vt 0.014477 0.362240
vt 0.263910 0.362239
vt 0.277768 0.433324
vt 0.000619 0.433324
vt 0.279006 0.506885
vt 0.556154 0.506885
vt 0.542297 0.577969
vt 0.292863 0.577969
vt 0.557392 0.511059
vt 0.806826 0.511059
vt 0.779111 0.577969
vt 0.585107 0.577969
vt 0.195861 0.928297
vt 0.389865 0.928297
vt 0.376008 0.999381
vt 0.209719 0.999381
vt 0.014477 0.928297
vt 0.180765 0.928297
vt 0.194623 0.999381
vt 0.000619 0.999381
vt 0.585108 0.217594
vt 0.779111 0.217594
vt 0.806826 0.284504
vt 0.557393 0.284504
vt 0.014477 0.506885
vt 0.263910 0.506885
vt 0.277767 0.577969
vt 0.000619 0.577969
vt 0.000619 0.145271
vt 0.277768 0.145271
vt 0.263910 0.216356
vt 0.014477 0.216356
vt 0.557393 0.072945
vt 0.806826 0.072945
vt 0.779112 0.139855
vt 0.585107 0.139855
vt 0.000619 0.783651
vt 0.194623 0.783651
vt 0.180766 0.854735
vt 0.014477 0.854735
vt 0.600203 0.855974
vt 0.766493 0.855974
vt 0.780350 0.927058
vt 0.586346 0.927058
vt 0.279006 0.647355
vt 0.473010 0.647355
vt 0.500725 0.714265
vt 0.251291 0.714265
vt 0.292864 0.217594
vt 0.542297 0.217594
vt 0.556155 0.288678
vt 0.279006 0.288678
vn 0.8152 0.4706 -0.3377
vn 0.0000 1.0000 0.0000
vn -0.8152 0.4706 0.3377
vn -0.8152 -0.4706 0.3377
vn 0.0000 -1.0000 -0.0000
vn 0.8152 -0.4706 -0.3377
vn 0.3377 0.4706 -0.8152
vn -0.3377 0.4706 0.8152
vn -0.3377 -0.4706 0.8152
vn 0.3377 -0.4706 -0.8152
vn -0.3377 0.4706 -0.8152
vn 0.3377 0.4706 0.8152
vn 0.3377 -0.4706 0.8152
vn -0.3377 -0.4706 -0.8152
vn -0.8152 0.4706 -0.3377
vn 0.8152 0.4706 0.3377
vn 0.8152 -0.4706 0.3377
vn -0.8152 -0.4706 -0.3377
usemtl Material.001
s 1
f 1/1/1 2/2/1 3/3/1 4/4/1
f 4/5/2 3/6/2 5/7/2 6/8/2
f 6/9/3 5/10/3 7/11/3 8/12/3
f 8/13/4 7/14/4 9/15/4 10/16/4
f 10/17/5 9/18/5 11/19/5 12/20/5
f 12/21/6 11/22/6 2/23/6 1/24/6
f 2/25/7 13/26/7 14/27/7 3/28/7
f 3/29/2 14/30/2 15/31/2 5/32/2
f 5/33/8 15/34/8 16/35/8 7/36/8
f 7/37/9 16/38/9 17/39/9 9/40/9
f 9/41/5 17/42/5 18/43/5 11/44/5
f 11/45/10 18/46/10 13/47/10 2/48/10
f 13/49/11 19/50/11 20/51/11 14/52/11
f 14/53/2 20/54/2 21/55/2 15/56/2
f 15/57/12 21/58/12 22/59/12 16/60/12
f 16/61/13 22/62/13 23/63/13 17/64/13
f 17/65/5 23/66/5 24/67/5 18/68/5
f 18/69/14 24/70/14 19/71/14 13/72/14
f 19/73/15 25/74/15 26/75/15 20/76/15
f 20/77/2 26/78/2 27/79/2 21/80/2
f 21/81/16 27/82/16 28/83/16 22/84/16
f 22/85/17 28/86/17 29/87/17 23/88/17
f 23/89/5 29/90/5 30/91/5 24/92/5
f 24/93/18 30/94/18 25/95/18 19/96/18
f 25/97/3 31/98/3 32/99/3 26/100/3
f 26/101/2 32/102/2 33/103/2 27/104/2
f 27/105/1 33/106/1 34/107/1 28/108/1
f 28/109/6 34/110/6 35/111/6 29/112/6
f 29/113/5 35/114/5 36/115/5 30/116/5
f 30/117/4 36/118/4 31/119/4 25/120/4
f 31/121/8 37/122/8 38/123/8 32/124/8
f 32/125/2 38/126/2 39/127/2 33/128/2
f 33/129/7 39/130/7 40/131/7 34/132/7
f 34/133/10 40/134/10 41/135/10 35/136/10
f 35/137/5 41/138/5 42/139/5 36/140/5
f 36/141/9 42/142/9 37/143/9 31/144/9
f 37/145/12 43/146/12 44/147/12 38/148/12
f 38/149/2 44/150/2 45/151/2 39/152/2
f 39/153/11 45/154/11 46/155/11 40/156/11
f 40/157/14 46/158/14 47/159/14 41/160/14
f 41/161/5 47/162/5 48/163/5 42/164/5
f 42/165/13 48/166/13 43/167/13 37/168/13
f 43/169/16 1/170/16 4/171/16 44/172/16
f 44/173/2 4/174/2 6/175/2 45/176/2
f 45/177/15 6/178/15 8/179/15 46/180/15
f 46/181/18 8/182/18 10/183/18 47/184/18
f 47/185/5 10/186/5 12/187/5 48/188/5
f 48/189/17 12/190/17 1/191/17 43/192/17
